<?xml version="1.0" encoding="UTF-8"?>
<svg width="80px" height="80px" viewBox="0 0 80 80" version="1.1" xmlns="http://www.w3.org/2000/svg" xmlns:xlink="http://www.w3.org/1999/xlink">
    <title>Artboard Copy 3</title>
    <g id="Artboard-Copy-3" stroke="none" stroke-width="1" fill="none" fill-rule="evenodd">
        <g id="Group" transform="translate(23.000000, 15.000000)">
            <path d="M17.2413793,0 C26.7635302,0 34.4827586,7.71922845 34.4827586,17.2413793 C34.4827586,23.5894799 28.7356322,34.5090201 17.2413793,50 C5.74712644,34.5090201 5.68434189e-14,23.5894799 5.68434189e-14,17.2413793 C5.68434189e-14,7.71922845 7.71922845,0 17.2413793,0 Z M17.2413793,8.62068966 C12.4803039,8.62068966 8.62068966,12.4803039 8.62068966,17.2413793 C8.62068966,22.0024547 12.4803039,25.862069 17.2413793,25.862069 C22.0024547,25.862069 25.862069,22.0024547 25.862069,17.2413793 C25.862069,12.4803039 22.0024547,8.62068966 17.2413793,8.62068966 Z" id="Combined-Shape" fill="#F07300"></path>
            <path d="M17.2413793,0 L17.2413793,8.62068966 L17.2413793,8.62068966 C12.4803039,8.62068966 8.62068966,12.4803039 8.62068966,17.2413793 C8.62068966,22.0024547 12.4803039,25.862069 17.2413793,25.862069 L17.2413793,50 C5.74712644,34.5090201 -8.52651283e-14,23.5894799 -8.52651283e-14,17.2413793 C-8.52651283e-14,7.71922845 7.71922845,0 17.2413793,0 L17.2413793,0 Z" id="Combined-Shape" fill="#FF611D"></path>
            <path d="M17.2413793,30.1724138 C10.0997662,30.1724138 4.31034483,24.3829925 4.31034483,17.2413793 C4.31034483,10.0997662 10.0997662,4.31034483 17.2413793,4.31034483 L17.2413793,4.31034483 L17.2413793,6.03448276 L17.2413793,6.03448276 C11.0519813,6.03448276 6.03448276,11.0519813 6.03448276,17.2413793 C6.03448276,23.4307774 11.0519813,28.4482759 17.2413793,28.4482759 Z" id="Combined-Shape" fill="#E15C22"></path>
            <path d="M30.1724138,30.1724138 C23.0308006,30.1724138 17.2413793,24.3829925 17.2413793,17.2413793 C17.2413793,10.0997662 23.0308006,4.31034483 30.1724138,4.31034483 L30.1724138,4.31034483 L30.1724138,6.03448276 L30.1724138,6.03448276 C23.9830157,6.03448276 18.9655172,11.0519813 18.9655172,17.2413793 C18.9655172,23.4307774 23.9830157,28.4482759 30.1724138,28.4482759 Z" id="Combined-Shape" fill="#F4864A" transform="translate(23.706897, 17.241379) scale(-1, 1) translate(-23.706897, -17.241379) "></path>
        </g>
    </g>
</svg>