<?xml version="1.0" standalone="no"?>
<!DOCTYPE svg PUBLIC "-//W3C//DTD SVG 20010904//EN"
 "http://www.w3.org/TR/2001/REC-SVG-20010904/DTD/svg10.dtd">
<svg version="1.0" xmlns="http://www.w3.org/2000/svg"
 width="800.000000pt" height="800.000000pt" viewBox="0 0 800.000000 800.000000"
 preserveAspectRatio="xMidYMid meet">
<metadata>
Created by potrace 1.14, written by Peter Selinger 2001-2017
</metadata>
<g transform="translate(0.000000,800.000000) scale(0.100000,-0.100000)"
fill="#000000" stroke="none">
<path d="M3829 7996 c-2 -2 -35 -6 -74 -10 -38 -3 -95 -11 -125 -16 -30 -5
-75 -12 -100 -15 -24 -4 -47 -8 -51 -10 -3 -2 -19 -6 -35 -9 -163 -30 -568
-172 -596 -211 -4 -5 -8 -7 -8 -2 0 27 -405 -224 -527 -328 -7 -5 -34 -28 -60
-50 -98 -81 -288 -278 -368 -380 -16 -21 -35 -43 -40 -49 -24 -25 -125 -175
-125 -184 0 -6 -4 -12 -8 -14 -5 -1 -33 -46 -63 -98 -191 -332 -305 -679 -353
-1070 -14 -112 -15 -481 -2 -558 16 -96 26 -150 31 -177 36 -176 37 -181 108
-410 22 -71 44 -136 50 -142 5 -7 7 -13 4 -13 -8 0 41 -131 55 -148 6 -6 8
-12 5 -12 -8 0 88 -237 105 -257 6 -7 8 -13 5 -13 -10 0 296 -638 312 -650 3
-3 21 -34 38 -70 46 -91 131 -246 192 -348 17 -29 31 -55 31 -58 0 -2 17 -33
39 -67 39 -63 238 -393 256 -425 16 -27 126 -202 216 -342 27 -41 53 -82 58
-90 26 -41 404 -604 446 -665 27 -38 63 -90 80 -115 17 -25 58 -83 91 -128 32
-46 64 -91 69 -100 6 -8 30 -43 55 -77 25 -35 52 -73 60 -85 13 -19 119 -166
153 -212 6 -9 73 -100 147 -201 151 -208 133 -198 200 -102 19 28 40 55 46 60
5 6 21 27 35 47 13 21 27 38 32 38 4 0 7 5 7 10 0 6 5 16 10 23 34 40 170 231
170 238 0 5 3 9 8 9 4 1 32 37 62 82 30 44 63 89 73 99 9 11 17 21 17 24 0 3
28 45 63 93 68 95 152 214 231 332 28 41 53 77 56 80 3 3 36 52 74 110 38 58
78 115 89 128 11 12 16 22 11 22 -5 0 -4 4 2 8 10 7 212 310 264 397 13 22 27
42 30 45 3 3 25 38 50 79 24 40 49 78 55 85 6 6 18 26 26 43 7 18 16 33 19 33
3 0 14 17 25 38 11 20 26 43 32 50 7 7 13 19 13 27 0 7 3 15 8 17 9 4 172 277
172 289 0 5 4 9 9 9 5 0 12 8 15 18 7 19 32 64 92 167 23 39 59 102 79 140 21
39 61 111 88 160 81 145 310 619 372 765 31 74 64 153 73 175 9 21 17 42 18
45 0 3 6 19 13 35 6 17 16 41 21 55 5 14 15 39 21 55 7 17 13 35 14 40 2 6 14
44 28 85 26 78 56 174 63 200 2 8 10 40 18 70 13 47 16 149 16 671 l0 616 -30
105 c-29 105 -49 163 -77 226 -8 18 -16 40 -18 50 -2 9 -21 56 -44 105 -22 48
-40 90 -40 94 0 3 -3 9 -8 12 -7 5 -27 40 -67 116 -19 36 -70 120 -76 125 -4
3 -17 24 -30 48 -13 23 -27 42 -32 42 -4 0 -8 4 -8 10 0 5 -6 18 -14 27 -8 10
-50 63 -94 118 -87 109 -257 286 -337 350 -27 22 -56 47 -65 55 -9 8 -29 24
-44 35 -16 11 -35 26 -43 34 -21 20 -250 170 -315 206 -29 16 -78 40 -108 54
-30 14 -56 29 -58 33 -2 5 -9 8 -16 8 -7 0 -31 9 -54 20 -38 18 -191 78 -217
84 -5 2 -17 6 -25 9 -13 5 -114 36 -145 43 -5 2 -21 6 -35 9 -47 13 -205 45
-245 50 -22 3 -53 8 -70 12 -16 3 -48 8 -70 10 -57 4 -502 13 -506 9z m426
-1389 c11 -3 52 -12 90 -21 262 -61 498 -195 689 -391 140 -144 288 -400 332
-575 13 -51 23 -100 29 -130 3 -19 9 -48 12 -65 14 -70 5 -408 -12 -435 -2 -3
-6 -23 -9 -45 -19 -120 -108 -329 -199 -465 -55 -84 -139 -183 -206 -245 -24
-22 -49 -45 -55 -51 -32 -31 -162 -117 -237 -158 -75 -40 -221 -101 -269 -111
-8 -2 -44 -10 -80 -19 -195 -45 -392 -43 -641 9 -14 2 -46 12 -70 21 -24 8
-52 17 -62 19 -50 11 -277 131 -330 176 -7 5 -37 28 -67 52 -61 47 -158 144
-198 197 -15 19 -32 41 -39 47 -6 7 -21 29 -34 50 -13 21 -25 40 -28 43 -18
16 -105 193 -131 267 -18 50 -36 120 -56 213 -14 64 -18 115 -18 250 0 80 2
163 6 185 4 22 9 54 12 72 20 129 99 333 178 463 113 185 308 374 483 471 33
18 62 36 65 39 3 3 53 25 111 48 117 46 242 79 334 89 33 3 62 7 64 10 6 5
310 -4 336 -10z"/>
</g>
</svg>
